<?xml version="1.0" ?><svg style="enable-background:new 0 0 48 48;" version="1.1" viewBox="0 0 48 48" xml:space="preserve" xmlns="http://www.w3.org/2000/svg" xmlns:xlink="http://www.w3.org/1999/xlink"><style type="text/css">
	.st0{display:none;}
	.st1{fill:none;stroke:#303030;stroke-width:0.7;stroke-linecap:round;stroke-linejoin:round;stroke-miterlimit:10;}
	.st2{fill:#303030;}
</style><g class="st0" id="Padding__x26__Artboard"/><g id="Icons"><g><line class="st1" x1="31.355" x2="16.645" y1="14.55105" y2="14.55105"/><path class="st1" d="M33.045,14.55105h1.4c1.24,0,2.25,1.01,2.25,2.26v16.41c0,1.25-1.01,2.26-2.25,2.26h-20.88    c-1.25,0-2.26-1.01-2.26-2.26v-16.41c0-1.25,1.01-2.26,2.26-2.26h1.39"/><line class="st1" x1="36.695" x2="11.305" y1="19.43105" y2="19.43105"/><g><path class="st1" d="M15.80193,16.58717L15.80193,16.58717c-0.46333,0-0.84241-0.37908-0.84241-0.84241v-2.3834     c0-0.46332,0.37908-0.84241,0.84241-0.84241h0c0.46332,0,0.84241,0.37908,0.84241,0.84241v2.3834     C16.64434,16.20809,16.26526,16.58717,15.80193,16.58717z"/><path class="st1" d="M32.19807,16.58717L32.19807,16.58717c-0.46333,0-0.84241-0.37908-0.84241-0.84241v-2.3834     c0-0.46332,0.37908-0.84241,0.84241-0.84241h0c0.46332,0,0.84241,0.37908,0.84241,0.84241v2.3834     C33.04048,16.20809,32.66139,16.58717,32.19807,16.58717z"/></g><g><rect class="st1" height="1.9886" width="3.54719" x="15.88189" y="24.29007"/><rect class="st1" height="1.9886" width="3.54719" x="22.30136" y="24.29007"/><rect class="st1" height="1.9886" width="3.54719" x="22.30136" y="28.25252"/><rect class="st1" height="1.9886" width="3.54719" x="28.57092" y="24.29007"/><rect class="st1" height="1.9886" width="3.54719" x="28.57092" y="28.25252"/><rect class="st1" height="1.9886" width="3.54719" x="15.97519" y="28.25252"/></g><line class="st1" x1="19.73182" x2="24.49272" y1="16.34431" y2="16.34431"/><line class="st1" x1="25.84855" x2="27.04857" y1="16.34431" y2="16.34431"/></g></g></svg>