<?xml version="1.0" ?><svg style="enable-background:new 0 0 48 48;" version="1.1" viewBox="0 0 48 48" xml:space="preserve" xmlns="http://www.w3.org/2000/svg" xmlns:xlink="http://www.w3.org/1999/xlink"><style type="text/css">
	.st0{display:none;}
	.st1{fill:none;stroke:#303030;stroke-width:0.7;stroke-linecap:round;stroke-linejoin:round;stroke-miterlimit:10;}
	.st2{fill:#303030;}
</style><g class="st0" id="Padding__x26__Artboard"/><g id="Icons"><g><line class="st1" x1="22.79867" x2="17.17826" y1="13.21182" y2="18.83223"/><line class="st1" x1="16.23788" x2="15.49433" y1="19.68514" y2="20.42869"/><polyline class="st1" points="13.40793,23.55566 15.90442,39.13971 32.09287,39.13971 34.58978,23.5465   "/><polygon class="st1" points="26.23632,23.984 25.70881,29.57825 22.28881,29.57825 21.76139,23.98728   "/><path class="st1" d="M35.02038,19.17636l-9.82134-9.82134c-0.32982-0.32982-0.76042-0.49473-1.20018-0.49473    c-0.4306,0-0.87036,0.16491-1.20018,0.49473l-9.82134,9.83051"/><path class="st1" d="M22.79867,9.35502c0.32982-0.32982,0.76958-0.49473,1.20018-0.49473    c0.43976,0,0.87036,0.16491,1.20018,0.49473l9.82134,9.82134l4.07696,4.07696c0.65964,0.65964,0.65964,1.73156,0,2.40037    c-0.6688,0.65964-1.74072,0.65964-2.40037,0l-2.10719-2.10719"/><path class="st1" d="M13.40793,23.55566l-2.09803,2.09803c-0.6688,0.65964-1.74072,0.65964-2.40037,0    c-0.6688-0.6688-0.6688-1.74072,0-2.40037l4.0678-4.06779l9.82134-9.83051c0.32982-0.32982,0.76958-0.49473,1.20018-0.49473    c0.43976,0,0.87036,0.16491,1.20018,0.49473"/><circle class="st2" cx="24.00082" cy="33.64859" r="0.99337"/></g></g></svg>