<?xml version="1.0" ?><svg id="icon" style="enable-background:new 0 0 512 512;" version="1.1" viewBox="0 0 512 512" xml:space="preserve" xmlns="http://www.w3.org/2000/svg" xmlns:xlink="http://www.w3.org/1999/xlink"><g><path d="M256.0004883,67.5183105c-103.9296875,0-188.4824219,84.5522461-188.4824219,188.4814453   s84.5527344,188.4819336,188.4824219,188.4819336c103.9287109,0,188.4814453-84.5527344,188.4814453-188.4819336   S359.9291992,67.5183105,256.0004883,67.5183105z M256.0004883,430.4816895   c-96.2099609,0-174.4824219-78.2724609-174.4824219-174.4819336S159.7905273,81.5183105,256.0004883,81.5183105   c96.2089844,0,174.4814453,78.2719727,174.4814453,174.4814453S352.2094727,430.4816895,256.0004883,430.4816895z"/><path d="M329.3344727,301.5148926l-66.3339844-49.0449219V148.6931152c0-3.8662109-3.1337891-7-7-7s-7,3.1337891-7,7v107.3066406   c0,2.2202148,1.0527344,4.3085938,2.8388672,5.628418l69.1728516,51.1435547   c1.2509766,0.9257813,2.7099609,1.3720703,4.1552734,1.3720703c2.1445313,0,4.2617188-0.9824219,5.6347656-2.8388672   C333.1000977,308.1965332,332.4438477,303.8132324,329.3344727,301.5148926z"/></g></svg>