<?xml version="1.0" ?><svg style="enable-background:new 0 0 48 48;" version="1.1" viewBox="0 0 48 48" xml:space="preserve" xmlns="http://www.w3.org/2000/svg" xmlns:xlink="http://www.w3.org/1999/xlink"><style type="text/css">
	.st0{display:none;}
	.st1{fill:none;stroke:#303030;stroke-width:0.7;stroke-linecap:round;stroke-linejoin:round;stroke-miterlimit:10;}
	.st2{fill:#303030;}
</style><g class="st0" id="Padding__x26__Artboard"/><g id="Icons"><g><path class="st1" d="M23.85191,20.7604c-1.74536-4.83545,6.11027-9.43258,9.34704-5.0194c0,0,1.25468-0.04503,3.54444-1.27797    c0,0-0.54602,1.74347-2.30737,2.89729c0,0,1.33863-0.00867,2.95907-0.73083c0,0-1.02158,1.65567-2.6068,2.76532    c0,0-0.03523,2.48351-0.40511,4.0335s-1.60283,5.8653-5.30167,8.89483s-8.2079,3.69884-10.76186,3.52271    s-5.68917-1.14488-7.71472-2.39544c0,0,4.63236,0.49318,8.04938-2.32499c0,0-3.45225,0.15852-5.09031-3.82214    c0,0,1.18011,0.21136,2.44828-0.14091c0,0-4.35054-0.79261-4.40338-5.47781c0,0,1.4267,0.70454,2.48351,0.63409    c0,0-4.15679-3.17043-1.62044-7.27439C12.47195,15.04428,16.63199,20.55838,23.85191,20.7604z"/><path class="st1" d="M29.07858,29.69389c-0.2166,0.25449-0.45053,0.50574-0.70302,0.74989"/><path class="st1" d="M31.96744,24.75278c-0.21736,0.69777-0.74022,2.18259-1.81396,3.68586"/></g></g></svg>