<?xml version="1.0" ?><svg style="enable-background:new 0 0 48 48;" version="1.1" viewBox="0 0 48 48" xml:space="preserve" xmlns="http://www.w3.org/2000/svg" xmlns:xlink="http://www.w3.org/1999/xlink"><style type="text/css">
	.st0{display:none;}
	.st1{fill:none;stroke:#303030;stroke-width:0.7;stroke-linecap:round;stroke-linejoin:round;stroke-miterlimit:10;}
	.st2{fill:#303030;}
</style><g class="st0" id="Padding__x26__Artboard"/><g id="Icons"><g><g><polyline class="st1" points="11.30134,14.91512 11.30134,28.98865 11.30134,30.787    "/><path class="st1" d="M36.69866,14.90352V30.787c0,0.23204-0.13923,0.39448-0.25525,0.39448l-21.88137-0.0693     c-0.11602,0-0.23205,0.0232-0.33646,0.08122c-0.05801,0.0232-0.11602,0.04641-0.16243,0.09282     c-0.04641,0.0232-0.09282,0.06961-0.13923,0.11602l-0.08122,0.09282"/><line class="st1" x1="34.93512" x2="13.05328" y1="13.99854" y2="13.99854"/></g><g><path class="st1" d="M11.30134,14.91512l12.19396,8.40003c0.15083,0.10442,0.32486,0.15083,0.4989,0.15083     c0.17403,0,0.34807-0.04641,0.4989-0.15083l12.20557-8.41163"/><polyline class="st1" points="13.05328,13.99854 23.9942,21.54 34.93512,13.99854    "/></g><g><path class="st1" d="M14.22557,31.19339c-0.05801,0.0232-0.11602,0.04641-0.16243,0.09282     c-0.04641,0.0232-0.09282,0.06961-0.13923,0.11602l-0.08122,0.09282l-2.54136,2.5064V30.787v-1.79835"/></g><line class="st1" x1="13.8427" x2="13.8427" y1="20.02366" y2="24.85849"/><line class="st1" x1="13.8427" x2="13.8427" y1="26.52488" y2="27.59613"/></g></g></svg>