<?xml version="1.0" ?><svg style="enable-background:new 0 0 48 48;" version="1.1" viewBox="0 0 48 48" xml:space="preserve" xmlns="http://www.w3.org/2000/svg" xmlns:xlink="http://www.w3.org/1999/xlink"><style type="text/css">
	.st0{display:none;}
	.st1{fill:none;stroke:#303030;stroke-width:0.7;stroke-linecap:round;stroke-linejoin:round;stroke-miterlimit:10;}
	.st2{fill:#303030;}
</style><g class="st0" id="Padding__x26__Artboard"/><g id="Icons"><g><path class="st1" d="M33.57327,23.98734H23.9788c-1.20746,0-2.19538-0.98792-2.19538-2.19538v-9.59447    c0-1.20746,0.98792-2.19537,2.19538-2.19537h9.59447c1.20746,0,2.19538,0.98792,2.19538,2.19537v9.59447    C35.76865,22.99942,34.78073,23.98734,33.57327,23.98734z"/><path class="st2" d="M29.77001,15.7494v-1.72518h-0.6855l-1.30245,0.69693l0.15995,0.61695l1.02825-0.55983h0.02285v0.97113    v1.90798v2.30785h0.14853h0.62838v-0.43415V17.1204V15.7494z"/><path class="st1" d="M14.44648,25.05864c0.00631,0.37919,0.04541,0.76091,0.11898,1.14134"/><path class="st1" d="M17.27106,19.49796c-0.49059,0.34763-0.9251,0.7546-1.29726,1.20651    c-0.61924,0.75193-1.06586,1.62828-1.31091,2.56275"/><g><path class="st1" d="M20.07542,16.59719c-0.29705,0-0.5941,0.02285-0.89115,0.06855"/><path class="st1" d="M15.5968,18.03279c-2.91173,2.06328-4.16513,5.88132-2.8346,9.33298l1.29196,3.37453"/><line class="st1" x1="31.33659" x2="16.50623" y1="31.42635" y2="37.12958"/><path class="st1" d="M15.59057,18.0409l-0.11074-0.28797c-0.38068-0.98989,0.11777-2.11126,1.10766-2.49194     c0.98989-0.38068,2.11126,0.11777,2.49194,1.10766l0.11074,0.28797"/><path class="st1" d="M29.2399,25.77c0.47999,0.9,1.20687,1.64708,2.15687,2.29708l0.03827,0.01585     c0.26027,0.08585,0.48731,0.24645,0.68528,0.4389c0.20864,0.23986,0.38158,0.49346,0.4569,0.90006     c0.1545,0.83405-0.33952,1.65792-1.13124,1.96239l-0.10938,0.04206l-14.83036,5.70324l-0.07573,0.02913     c-0.82669,0.31792-1.81299,0.04766-2.25396-0.72048c-0.34083-0.59371-0.28258-1.26007,0.02759-1.76445     c0.01434-0.02332,0.02537-0.04915,0.03143-0.07585c0.31004-1.36476,0.27969-2.65001-0.18567-3.85793"/><path class="st1" d="M23.03951,34.61711c0.47758,1.24186-0.16071,2.64427-1.40257,3.12185l-0.25197,0.0969     c-1.24186,0.47758-2.65535-0.13579-3.13293-1.37766"/></g></g></g></svg>