<?xml version="1.0" ?><!DOCTYPE svg  PUBLIC '-//W3C//DTD SVG 1.1//EN'  'http://www.w3.org/Graphics/SVG/1.1/DTD/svg11.dtd'><svg enable-background="new 0 0 100 100" id="Layer_1" version="1.1" viewBox="0 0 100 100" xml:space="preserve" xmlns="http://www.w3.org/2000/svg" xmlns:xlink="http://www.w3.org/1999/xlink"><g><g><rect clip-rule="evenodd" fill="#231F20" fill-rule="evenodd" height="1.5" width="2.4" x="33.9" y="69.5"/><rect clip-rule="evenodd" fill="#231F20" fill-rule="evenodd" height="1.5" width="2.4" x="29.6" y="69.5"/><rect clip-rule="evenodd" fill="#231F20" fill-rule="evenodd" height="1.5" width="2.4" x="25.3" y="69.5"/><rect clip-rule="evenodd" fill="#231F20" fill-rule="evenodd" height="1.5" width="2.4" x="46.8" y="69.5"/><rect clip-rule="evenodd" fill="#231F20" fill-rule="evenodd" height="1.5" width="2.4" x="42.5" y="69.5"/><rect clip-rule="evenodd" fill="#231F20" fill-rule="evenodd" height="1.5" width="2.4" x="38.2" y="69.5"/><rect clip-rule="evenodd" fill="#231F20" fill-rule="evenodd" height="1.5" width="2.4" x="51.1" y="69.5"/><rect clip-rule="evenodd" fill="#231F20" fill-rule="evenodd" height="1.5" width="2.4" x="55.8" y="69.5"/><rect clip-rule="evenodd" fill="#231F20" fill-rule="evenodd" height="1.5" width="2.4" x="59.6" y="69.2"/><rect clip-rule="evenodd" fill="#231F20" fill-rule="evenodd" height="1.5" width="2.4" x="72.5" y="69.2"/><rect clip-rule="evenodd" fill="#231F20" fill-rule="evenodd" height="1.5" width="2.4" x="68.2" y="69.2"/><rect clip-rule="evenodd" fill="#231F20" fill-rule="evenodd" height="1.5" width="2.4" x="63.9" y="69.2"/><rect clip-rule="evenodd" fill="#231F20" fill-rule="evenodd" height="3.2" transform="matrix(-0.6972 -0.7169 0.7169 -0.6972 11.2025 125.4812)" width="1.5" x="31.4" y="58.8"/><rect clip-rule="evenodd" fill="#231F20" fill-rule="evenodd" height="3.2" transform="matrix(-0.6972 -0.7169 0.7169 -0.6972 1.2353 129.3826)" width="1.5" x="27.2" y="62.8"/><rect clip-rule="evenodd" fill="#231F20" fill-rule="evenodd" height="3.2" transform="matrix(-0.6972 -0.7169 0.7169 -0.6972 -8.6981 133.2715)" width="1.5" x="23.1" y="66.9"/><rect clip-rule="evenodd" fill="#231F20" fill-rule="evenodd" height="3.2" transform="matrix(0.7367 -0.6762 0.6762 0.7367 -45.4149 42.5381)" width="1.5" x="31.2" y="78"/><rect clip-rule="evenodd" fill="#231F20" fill-rule="evenodd" height="3.2" transform="matrix(0.7367 -0.6762 0.6762 0.7367 -43.55 38.757)" width="1.5" x="27.3" y="73.7"/><rect clip-rule="evenodd" fill="#231F20" fill-rule="evenodd" height="3.2" transform="matrix(0.7367 -0.6762 0.6762 0.7367 -41.6912 34.9883)" width="1.5" x="23.4" y="69.4"/><rect clip-rule="evenodd" fill="#231F20" fill-rule="evenodd" height="2.7" width="1.5" x="74.9" y="67.9"/><rect clip-rule="evenodd" fill="#231F20" fill-rule="evenodd" height="2.7" width="1.5" x="74.9" y="63"/><rect clip-rule="evenodd" fill="#231F20" fill-rule="evenodd" height="2.7" width="1.5" x="74.9" y="58.2"/></g><polygon fill="#010101" points="76.4,36.2 64.5,24.4 63.1,25.8 72.7,35.3 24.3,35.3 24.3,35.2 22.1,35.2 22.1,49.3 24.3,49.3    24.3,37.2 72.7,37.2 62.9,46.9 64.3,48.3 76.4,36.3 76.4,36.3  "/></g></svg>